# xmcd
#
# Track frame offsets: 
#        150
#        18740
#        38097
#        63050
#        85055
#        103307
#        127775
#        149700
#        175660
#
# Disc length: 2754 seconds
#
# Revision: 4
# Processed by: cddbd v1.5.2PL0 Copyright (c) Steve Scherf et al.
# Submitted via: ExactAudioCopy v1.3
#
DISCID=730ac009
DTITLE=Michel Jonasz - Les fabuleux moments de Mister Swing
DYEAR=1989
DGENRE=Jazz
TTITLE0=Mister Swing
TTITLE1=A chaque saison qui passe
TTITLE2=La chanson du producteur
TTITLE3=In the morning
TTITLE4=Si si si le ciel
TTITLE5=La chanson du compositeur
TTITLE6=Je t'aime
TTITLE7=Poussy
TTITLE8=La fabuleuse histoire de Mister Swing
EXTD=
EXTT0=
EXTT1=
EXTT2=
EXTT3=
EXTT4=
EXTT5=
EXTT6=
EXTT7=
EXTT8=
PLAYORDER=
